<?xml version="1.0" standalone="no"?>
<!DOCTYPE svg PUBLIC "-//W3C//DTD SVG 20010904//EN"
 "http://www.w3.org/TR/2001/REC-SVG-20010904/DTD/svg10.dtd">
<svg version="1.0" xmlns="http://www.w3.org/2000/svg"
 width="256.000000pt" height="256.000000pt" viewBox="0 0 256.000000 256.000000"
 preserveAspectRatio="xMidYMid meet">

<g transform="translate(0.000000,256.000000) scale(0.100000,-0.100000)"
fill="#000000" stroke="none">
<path d="M1238 2049 c-22 -16 -30 -18 -46 -8 -43 27 -102 -25 -102 -91 0 -26
65 -90 92 -90 20 0 23 -12 9 -39 -6 -10 -11 -49 -12 -88 l-2 -70 -63 -12
c-166 -30 -274 -111 -344 -256 -46 -94 -50 -138 -20 -217 35 -93 23 -142 -57
-222 -49 -51 -106 -79 -195 -100 -66 -15 -103 -44 -149 -115 -18 -28 -29 -58
-29 -80 0 -20 -3 -60 -7 -89 -5 -47 -12 -59 -56 -102 -67 -65 -121 -90 -197
-90 -57 0 -78 -11 -44 -24 58 -22 171 15 244 81 67 60 80 88 80 168 0 109 64
200 156 224 136 36 205 81 268 175 30 44 35 115 13 169 -30 71 -30 107 -2 178
76 188 212 275 446 286 108 5 119 4 165 -18 67 -33 192 -153 218 -209 19 -41
20 -61 18 -220 -3 -212 5 -262 57 -338 54 -80 99 -118 151 -126 53 -8 108 -36
140 -71 80 -86 207 -160 312 -180 38 -7 77 -20 86 -28 30 -27 156 -97 174 -97
33 0 18 15 -44 45 -34 17 -74 40 -89 53 -35 29 -91 52 -127 52 -51 0 -182 72
-259 143 -81 74 -113 94 -171 103 -61 10 -93 34 -145 110 -62 91 -71 143 -63
338 10 201 0 233 -104 337 -101 103 -154 129 -260 129 l-80 0 0 68 c0 66 25
132 49 132 6 0 30 25 55 56 37 45 46 63 46 95 0 28 -5 41 -19 49 -30 15 -63
12 -93 -11z m90 -40 c2 -18 -10 -41 -39 -77 -37 -45 -47 -52 -79 -52 -69 0
-119 90 -74 134 23 23 43 20 54 -10 l10 -26 30 32 c23 25 36 31 62 28 27 -2
34 -8 36 -29z"/>
<path d="M1260 1421 c0 -11 5 -23 10 -26 6 -4 10 5 10 19 0 14 -4 26 -10 26
-5 0 -10 -9 -10 -19z"/>
<path d="M1040 1411 c0 -22 16 -36 24 -22 8 12 -3 41 -15 41 -5 0 -9 -9 -9
-19z"/>
<path d="M1158 1323 c12 -2 32 -2 45 0 12 2 2 4 -23 4 -25 0 -35 -2 -22 -4z"/>
</g>
</svg>
